<svg width="170" height="90" viewBox="0 0 170 90" fill="none" xmlns="http://www.w3.org/2000/svg">
<g clip-path="url(#clip0_1_5)">
<path fill-rule="evenodd" clip-rule="evenodd" d="M96.5496 35.49C108.406 13.7022 85.7235 9.16311 70.586 7.58734L71.339 0C93.4195 3.46523 108.745 15.8611 96.5496 35.49Z" fill="#23377E"/>
<path fill-rule="evenodd" clip-rule="evenodd" d="M96.7379 34.298C105.002 14.9754 87.1778 10.8459 70.2723 8.63541L69.1428 20.7545C72.1954 20.0017 101.588 14.4219 96.7379 34.298Z" fill="#23377E"/>
<path fill-rule="evenodd" clip-rule="evenodd" d="M80.0096 13.1819C63.8681 28.8031 79.3821 42.5754 90.2193 50.3916L87.1335 57.2408C71.7118 44.7343 64.3332 26.6184 80.0096 13.1819Z" fill="#23377E"/>
<path fill-rule="evenodd" clip-rule="evenodd" d="M79.4743 14.2299C66.8469 29.0208 78.8542 40.376 90.8099 49.5317L95.6859 38.5604C93.1464 37.9957 69.2277 30.973 79.4743 14.2299Z" fill="#23377E"/>
<path d="M12.1808 64.8909C12.6348 64.8909 13.063 64.9758 13.469 65.1529C13.8653 65.3188 14.2253 65.5608 14.5284 65.8652C14.8311 66.1641 15.0673 66.5184 15.2408 66.9243C15.4143 67.3302 15.5029 67.7583 15.5029 68.2122V69.3193C15.5029 69.7843 15.4143 70.2161 15.2408 70.6146C15.0673 71.0132 14.8311 71.3638 14.5284 71.6664C14.2253 71.9708 13.8653 72.2127 13.469 72.3786C13.063 72.5521 12.6311 72.6406 12.1808 72.6406H2.21469V75.9619H0V64.8909H12.1808ZM13.2882 68.2122C13.2882 67.9059 13.1811 67.6439 12.9634 67.4299C12.7456 67.2158 12.4872 67.1051 12.1808 67.1051H2.21469V70.4264H12.1808C12.4872 70.4264 12.7493 70.3194 12.9634 70.1017C13.1811 69.8876 13.2882 69.6256 13.2882 69.3193V68.2122Z" fill="#08132D"/>
<path d="M32.5745 69.3193C32.5792 70.041 32.3457 70.744 31.9101 71.3195C31.6997 71.6 31.4524 71.8398 31.1681 72.0391C30.8839 72.2384 30.5665 72.386 30.2195 72.4819L32.5302 75.9619H29.8725L27.6579 72.6406H19.3048V75.9619H17.0901V64.8909H29.2709C29.7249 64.8909 30.1531 64.9758 30.5591 65.1529C30.9651 65.3264 31.3158 65.5626 31.6111 65.8652C31.9064 66.1641 32.1426 66.5184 32.3161 66.9243C32.4896 67.3302 32.5782 67.7583 32.5782 68.2122V69.3193H32.5745ZM30.3745 68.2122C30.3745 67.9059 30.2675 67.6439 30.0497 67.4299C29.8319 67.2158 29.5736 67.1051 29.2672 67.1051H19.3011V70.4264H29.2672C29.5736 70.4264 29.8356 70.3194 30.0497 70.1017C30.2675 69.8876 30.3745 69.6256 30.3745 69.3193V68.2122Z" fill="#08132D"/>
<path d="M49.6424 72.6406C49.6424 73.0946 49.5575 73.5226 49.3803 73.9286C49.2144 74.3248 48.9724 74.6846 48.6679 74.9877C48.3652 75.2866 48.0183 75.5265 47.616 75.6999C47.2136 75.8734 46.7817 75.9619 46.3204 75.9619H37.4763C37.0113 75.9619 36.5794 75.8771 36.1807 75.6999C35.7872 75.533 35.4299 75.2911 35.1288 74.9877C34.8251 74.684 34.5832 74.3243 34.4164 73.9286C34.2429 73.5226 34.1543 73.0946 34.1543 72.6406V68.2122C34.1543 67.7583 34.2429 67.3302 34.4164 66.9243C34.5823 66.5281 34.8243 66.1682 35.1288 65.8652C35.4277 65.5663 35.7784 65.3264 36.1807 65.1529C36.5831 64.9795 37.0149 64.8909 37.4763 64.8909H46.3204C46.7854 64.8909 47.2173 64.9758 47.616 65.1529C48.0183 65.3264 48.3689 65.5626 48.6679 65.8652C48.9669 66.1641 49.2068 66.5184 49.3803 66.9243C49.5538 67.3302 49.6424 67.7583 49.6424 68.2122V72.6406ZM36.369 72.6406C36.369 72.9469 36.476 73.2053 36.6938 73.4156C36.9079 73.626 37.17 73.733 37.4763 73.733H46.3204C46.6378 73.733 46.9036 73.6296 47.1176 73.4156C47.3317 73.2016 47.4425 72.9469 47.4425 72.6406V68.2122C47.4425 67.9059 47.3354 67.6439 47.1176 67.4299C46.8999 67.2158 46.6341 67.1051 46.3204 67.1051H37.4763C37.17 67.1051 36.9079 67.2122 36.6938 67.4299C36.476 67.6476 36.369 67.9059 36.369 68.2122V72.6406Z" fill="#08132D"/>
<path d="M51.488 66.9243C51.6539 66.5281 51.8959 66.1682 52.2004 65.8652C52.4994 65.5663 52.8537 65.3264 53.2597 65.1529C53.6658 64.9795 54.0939 64.8909 54.548 64.8909H66.7288V67.1051H54.548C54.2416 67.1051 53.9832 67.2122 53.7728 67.4299C53.5624 67.6476 53.4554 67.9059 53.4554 68.2122V72.6406C53.4554 72.9469 53.5624 73.2053 53.7728 73.4156C53.9832 73.626 54.2416 73.733 54.548 73.733H63.4067C63.702 73.733 63.9641 73.6296 64.1893 73.4156C64.4144 73.2016 64.5288 72.9469 64.5288 72.6406V71.5335H57.8663V69.3193H66.7251V72.6406C66.7251 73.0946 66.6365 73.5226 66.463 73.9286C66.2895 74.3345 66.0533 74.6888 65.7506 74.9877C65.4516 75.2866 65.0973 75.5265 64.6912 75.6999C64.2852 75.8734 63.8534 75.9619 63.403 75.9619H54.5443C54.0902 75.9619 53.6621 75.8771 53.256 75.6999C52.85 75.5228 52.4957 75.2903 52.1967 74.9877C51.893 74.684 51.6511 74.3243 51.4843 73.9286C51.3108 73.5226 51.2222 73.0946 51.2222 72.6406V68.2122C51.2222 67.7583 51.3108 67.3302 51.4843 66.9243H51.488Z" fill="#08132D"/>
<path d="M83.8004 69.3193C83.8004 69.6994 83.7413 70.0574 83.6269 70.3932C83.5088 70.7327 83.3464 71.039 83.136 71.3195C82.9256 71.6 82.6783 71.8398 82.394 72.0391C82.1098 72.2384 81.7924 72.386 81.4454 72.4819L83.7561 75.9619H81.0984L78.8838 72.6406H70.5307V75.9619H68.316V64.8909H80.4968C80.9508 64.8909 81.379 64.9758 81.785 65.1529C82.191 65.3264 82.5417 65.5626 82.837 65.8652C83.1323 66.1641 83.3648 66.5184 83.542 66.9243C83.7192 67.3302 83.8041 67.7583 83.8041 68.2122V69.3193H83.8004ZM81.6004 68.2122C81.6004 67.9059 81.4934 67.6439 81.2756 67.4299C81.0578 67.2158 80.7995 67.1051 80.4931 67.1051H70.527V70.4264H80.4931C80.7995 70.4264 81.0615 70.3194 81.2756 70.1017C81.4934 69.8876 81.6004 69.6256 81.6004 69.3193V68.2122Z" fill="#08132D"/>
<path d="M85.646 66.9243C85.8194 66.5184 86.0594 66.1641 86.3657 65.8652C86.6721 65.5663 87.0228 65.3264 87.4251 65.1529C87.8274 64.9795 88.2593 64.8909 88.7244 64.8909H100.905V67.1051H88.7244C88.418 67.1051 88.1559 67.2122 87.9419 67.4299C87.7278 67.6476 87.617 67.9059 87.617 68.2122V69.3193H100.905V71.5335H87.617V72.6406C87.617 72.9469 87.7241 73.2053 87.9419 73.4156C88.1596 73.626 88.418 73.733 88.7244 73.733H100.905V75.9619H88.7244C88.2593 75.9619 87.8274 75.8771 87.4251 75.6999C87.0228 75.5228 86.6721 75.2903 86.3657 74.9877C86.0594 74.6851 85.8194 74.3345 85.646 73.9286C85.4725 73.5226 85.3839 73.0946 85.3839 72.6406V68.2122C85.3839 67.7583 85.4688 67.3302 85.646 66.9243Z" fill="#08132D"/>
<path d="M105.028 67.4299C104.81 67.6476 104.703 67.9059 104.703 68.2122C104.703 68.5185 104.81 68.7805 105.028 68.9946C105.242 69.2123 105.504 69.3193 105.811 69.3193H114.67C115.124 69.3193 115.555 69.4042 115.958 69.5813C116.364 69.7548 116.718 69.991 117.017 70.2936C117.316 70.5962 117.556 70.9468 117.729 71.3527C117.903 71.7586 117.992 72.1867 117.992 72.6406C117.992 73.0946 117.903 73.5226 117.729 73.9286C117.564 74.3248 117.322 74.6846 117.017 74.9877C116.718 75.2866 116.364 75.5265 115.958 75.6999C115.552 75.8734 115.124 75.9619 114.67 75.9619H102.489V73.733H114.67C114.976 73.733 115.238 73.6296 115.452 73.4156C115.666 73.2053 115.777 72.9469 115.777 72.6406C115.777 72.3343 115.67 72.0723 115.452 71.8583C115.234 71.6443 114.976 71.5335 114.67 71.5335H105.811C105.357 71.5335 104.929 71.445 104.523 71.2715C104.117 71.0981 103.762 70.8619 103.463 70.5593C103.164 70.2567 102.924 69.9098 102.751 69.5075C102.577 69.1053 102.489 68.6735 102.489 68.2122C102.489 67.7509 102.574 67.3302 102.751 66.9243C102.928 66.5184 103.16 66.1641 103.463 65.8652C103.766 65.5663 104.117 65.3264 104.523 65.1529C104.929 64.9795 105.357 64.8909 105.811 64.8909H117.995V67.1051H105.811C105.504 67.1051 105.242 67.2122 105.028 67.4299Z" fill="#08132D"/>
<path d="M122.115 67.4299C121.897 67.6476 121.79 67.9059 121.79 68.2122C121.79 68.5185 121.897 68.7805 122.115 68.9946C122.329 69.2123 122.591 69.3193 122.897 69.3193H131.756C132.21 69.3193 132.642 69.4042 133.044 69.5813C133.45 69.7548 133.805 69.991 134.103 70.2936C134.402 70.5962 134.642 70.9468 134.816 71.3527C134.989 71.7586 135.078 72.1867 135.078 72.6406C135.078 73.0946 134.989 73.5226 134.816 73.9286C134.65 74.3248 134.408 74.6846 134.103 74.9877C133.805 75.2866 133.45 75.5265 133.044 75.6999C132.638 75.8734 132.21 75.9619 131.756 75.9619H119.575V73.733H131.756C132.062 73.733 132.324 73.6296 132.538 73.4156C132.753 73.2053 132.863 72.9469 132.863 72.6406C132.863 72.3343 132.756 72.0723 132.538 71.8583C132.321 71.6443 132.062 71.5335 131.756 71.5335H122.897C122.443 71.5335 122.015 71.445 121.609 71.2715C121.203 71.0981 120.849 70.8619 120.55 70.5593C120.251 70.2567 120.011 69.9098 119.837 69.5075C119.664 69.1053 119.575 68.6735 119.575 68.2122C119.575 67.7509 119.66 67.3302 119.837 66.9243C120.014 66.5184 120.247 66.1641 120.55 65.8652C120.852 65.5663 121.203 65.3264 121.609 65.1529C122.015 64.9795 122.443 64.8909 122.897 64.8909H135.082V67.1051H122.897C122.591 67.1051 122.329 67.2122 122.115 67.4299Z" fill="#08132D"/>
<path d="M136.661 64.8909H138.876V75.9619H136.661V64.8909Z" fill="#08132D"/>
<path d="M146.469 75.663C146.129 75.4638 145.867 75.2054 145.679 74.8881L139.666 64.8909H142.261L147.576 73.733H148.525L153.84 64.8909H156.417L150.422 74.8881C150.234 75.2054 149.968 75.4638 149.632 75.663C149.296 75.8623 148.927 75.9619 148.525 75.9619H147.576C147.187 75.9654 146.804 75.862 146.469 75.663Z" fill="#08132D"/>
<path d="M169.996 75.9619H167.435L165.427 72.6406H157.834L155.826 75.9619H153.261L159.259 65.9648C159.447 65.6475 159.713 65.3891 160.049 65.1898C160.385 64.9906 160.754 64.8909 161.156 64.8909H162.105C162.507 64.8909 162.872 64.9906 163.212 65.1898C163.548 65.3891 163.814 65.6475 164.002 65.9648L170 75.9619H169.996ZM164.094 70.4264L162.101 67.1051H161.152L159.159 70.4264H164.094Z" fill="#08132D"/>
<path d="M0.343277 80.3977H1.47277V87.8375H0.343277V80.3977ZM0.944932 83.9958H3.06366C3.26298 83.9958 3.43647 83.9552 3.5878 83.8703C3.73914 83.7855 3.85357 83.6674 3.93477 83.5124C4.01598 83.3574 4.05658 83.1766 4.05658 82.9736V82.4016C4.05658 82.1912 4.01598 82.0067 3.93477 81.848C3.85357 81.6894 3.73914 81.5713 3.5878 81.4864C3.43647 81.4015 3.26298 81.3572 3.06366 81.3572H0.944932V80.4014H3.03044C3.47707 80.4014 3.86464 80.4826 4.18946 80.6413C4.51429 80.8 4.76898 81.0325 4.94615 81.3314C5.12333 81.6303 5.21192 81.9846 5.21192 82.3905V82.9847C5.21192 83.3869 5.12333 83.7375 4.94615 84.0327C4.76898 84.3279 4.51428 84.5568 4.18577 84.7154C3.85726 84.8741 3.46968 84.9516 3.02675 84.9516H0.941243V83.9958H0.944932Z" fill="#212B50"/>
<path d="M11.1399 80.394H12.2694V87.8375H11.1399V80.394ZM11.6493 83.7338H13.8382C14.0449 83.7338 14.2257 83.6932 14.3808 83.612C14.5358 83.5308 14.6576 83.4164 14.7388 83.2688C14.82 83.1212 14.8606 82.9441 14.8606 82.7448V82.361C14.8606 82.158 14.82 81.9772 14.7388 81.8222C14.6576 81.6672 14.5395 81.5528 14.3844 81.4679C14.2294 81.383 14.0485 81.3461 13.8382 81.3461H11.6493V80.3904H13.7643C14.2257 80.3904 14.6281 80.4678 14.9713 80.6191C15.3146 80.7705 15.5767 80.9956 15.7576 81.2834C15.9384 81.5713 16.0344 81.9145 16.0344 82.3056V82.7411C16.0344 83.136 15.9421 83.4828 15.7576 83.7744C15.573 84.0659 15.3109 84.291 14.9713 84.4497C14.6317 84.6084 14.2294 84.6859 13.768 84.6859H11.653V83.7301L11.6493 83.7338ZM13.4986 84.4608L14.5911 84.2246L16.3223 87.8375H15.0341L13.4986 84.4608Z" fill="#212B50"/>
<path d="M23.162 87.6382C22.7855 87.4537 22.4976 87.1843 22.2946 86.8374C22.0916 86.4905 21.9919 86.0809 21.9919 85.6159V82.6267C21.9919 82.1543 22.0916 81.7484 22.2946 81.4015C22.4976 81.0546 22.7855 80.7889 23.162 80.6044C23.5385 80.4199 23.9815 80.3239 24.4871 80.3239C24.9928 80.3239 25.4358 80.4162 25.8123 80.6044C26.1888 80.7926 26.4767 81.0546 26.6797 81.4015C26.8827 81.7484 26.9824 82.158 26.9824 82.6267V85.6159C26.9824 86.0845 26.8827 86.4905 26.6797 86.8374C26.4767 87.1843 26.1888 87.4537 25.8123 87.6382C25.4358 87.8227 24.9928 87.9186 24.4871 87.9186C23.9815 87.9186 23.5385 87.8264 23.162 87.6382ZM25.2069 86.7746C25.4099 86.6713 25.5687 86.5237 25.6757 86.3281C25.7827 86.1325 25.8381 85.9074 25.8381 85.6454V82.5972C25.8381 82.3351 25.7827 82.1064 25.6757 81.9145C25.5687 81.7226 25.4099 81.5749 25.2069 81.4679C25.0039 81.3609 24.764 81.3129 24.4871 81.3129C24.2103 81.3129 23.9741 81.3646 23.7674 81.4679C23.5607 81.5713 23.4056 81.7189 23.2949 81.9145C23.1842 82.11 23.1288 82.3351 23.1288 82.5972V85.6454C23.1288 85.9074 23.1842 86.1362 23.2949 86.3281C23.4056 86.52 23.5644 86.6676 23.7674 86.7746C23.9704 86.8817 24.2103 86.9296 24.4871 86.9296C24.764 86.9296 25.0002 86.878 25.2069 86.7746Z" fill="#212B50"/>
<path d="M32.3419 80.3977H37.3029V81.3535H32.3419V80.3977ZM34.254 81.0066H35.3834V87.8375H34.254V81.0066Z" fill="#212B50"/>
<path d="M42.9725 80.3977H44.102V87.8375H42.9725V80.3977ZM43.5409 80.3977H47.4388V81.3535H43.5409V80.3977ZM43.5409 83.6674H46.9774V84.6195H43.5409V83.6674ZM43.5409 86.8817H47.4388V87.8375H43.5409V86.8817Z" fill="#212B50"/>
<path d="M54.4372 87.6308C54.0755 87.4426 53.7949 87.1695 53.5993 86.8189C53.4037 86.4684 53.304 86.0513 53.304 85.5753V82.6636C53.304 82.1876 53.4037 81.7706 53.5993 81.4163C53.7949 81.062 54.0755 80.7926 54.4372 80.6044C54.7989 80.4162 55.2271 80.3203 55.7217 80.3203C56.2163 80.3203 56.6113 80.4051 56.9583 80.5749C57.3052 80.7446 57.5747 80.9956 57.774 81.3277C57.9733 81.6598 58.0878 82.0621 58.1247 82.5345H56.9804C56.9546 82.2724 56.8844 82.0473 56.7737 81.8628C56.663 81.6783 56.519 81.5381 56.3381 81.4421C56.1573 81.3462 55.9543 81.2982 55.7254 81.2982C55.467 81.2982 55.2419 81.3535 55.0536 81.4643C54.8654 81.575 54.7177 81.7337 54.6107 81.9366C54.5036 82.1396 54.452 82.3831 54.452 82.6562V85.5679C54.452 85.8447 54.5036 86.0846 54.6107 86.2875C54.7177 86.4905 54.8617 86.6492 55.0536 86.7599C55.2456 86.8706 55.467 86.9223 55.7254 86.9223C55.958 86.9223 56.1647 86.8743 56.3418 86.782C56.519 86.6898 56.663 86.5495 56.7737 86.365C56.8844 86.1805 56.9546 85.9554 56.9804 85.6897H58.1247C58.0915 86.1621 57.9733 86.568 57.774 86.8964C57.5747 87.2249 57.3015 87.4795 56.9546 87.6493C56.6076 87.819 56.1979 87.9039 55.7254 87.9039C55.253 87.9039 54.8063 87.8079 54.4409 87.6197L54.4372 87.6308ZM54.714 89.9041L54.9429 89.214C55.1238 89.2619 55.2973 89.2841 55.4707 89.2841C55.6627 89.2841 55.8029 89.2619 55.8989 89.2177C55.9949 89.1734 56.0392 89.1033 56.0392 89.0147C56.0392 88.9261 55.9727 88.8597 55.8399 88.8154C55.707 88.7711 55.5113 88.749 55.2456 88.749L55.7254 88.177C56.1536 88.177 56.4747 88.2545 56.6925 88.4058C56.9103 88.5571 57.0173 88.7859 57.0173 89.0885C57.0173 89.3911 56.8992 89.6199 56.6667 89.7712C56.4341 89.9225 56.0798 90 55.6147 90C55.264 90 54.965 89.9705 54.714 89.9077V89.9041ZM56.065 87.5238V88.7564L55.1533 88.7453V87.5238H56.065Z" fill="#212B50"/>
<path d="M65.8281 80.3977H66.8247L69.3237 87.8374H68.1093L66.3264 81.8812L64.5436 87.8374H63.3292L65.8281 80.3977ZM66.9613 79.8147C66.869 79.7925 66.7805 79.7704 66.7029 79.7371C66.6254 79.7039 66.5442 79.6707 66.4593 79.6227H66.4482C66.4187 79.6006 66.3855 79.5858 66.356 79.5748C66.3264 79.5637 66.2969 79.5489 66.2711 79.5305C66.1456 79.4604 66.0385 79.405 65.9536 79.3681C65.8687 79.3312 65.7765 79.3128 65.6805 79.3128C65.5661 79.3128 65.4812 79.3423 65.4258 79.4013C65.3704 79.4604 65.3409 79.5489 65.3409 79.6707V79.8442H64.4513V79.5563C64.4513 79.1836 64.5362 78.9031 64.7097 78.7112C64.8832 78.5193 65.1342 78.4234 65.4664 78.4234C65.6436 78.4234 65.7949 78.4455 65.9278 78.4935C66.0607 78.5415 66.2046 78.6042 66.367 78.6854H66.3781C66.3966 78.7002 66.415 78.7075 66.4335 78.7149C66.4519 78.7223 66.4704 78.7297 66.4888 78.7408C66.607 78.8072 66.7066 78.8589 66.7841 78.8921C66.8617 78.9253 66.9429 78.94 67.0278 78.94C67.1422 78.94 67.2271 78.9068 67.2861 78.8441C67.3452 78.7814 67.371 78.6817 67.371 78.5526V78.3976H68.2643V78.6854C68.2643 79.0655 68.1794 79.3497 68.0096 79.5453C67.8398 79.7408 67.5888 79.8368 67.2603 79.8368C67.1533 79.8368 67.0536 79.8257 66.9613 79.8073V79.8147ZM64.6543 85.2579H68.0797V86.21H64.6543V85.2579Z" fill="#212B50"/>
<path d="M75.8791 87.6382C75.5026 87.4537 75.2147 87.1843 75.0117 86.8374C74.8087 86.4905 74.7091 86.0809 74.7091 85.6159V82.6267C74.7091 82.1543 74.8087 81.7484 75.0117 81.4015C75.2147 81.0546 75.5026 80.7889 75.8791 80.6044C76.2556 80.4199 76.6986 80.3239 77.2043 80.3239C77.71 80.3239 78.1529 80.4162 78.5294 80.6044C78.9059 80.7926 79.1938 81.0546 79.3968 81.4015C79.5998 81.7484 79.6995 82.158 79.6995 82.6267V85.6159C79.6995 86.0845 79.5998 86.4905 79.3968 86.8374C79.1938 87.1843 78.9059 87.4537 78.5294 87.6382C78.1529 87.8227 77.71 87.9186 77.2043 87.9186C76.6986 87.9186 76.2556 87.8264 75.8791 87.6382ZM77.924 86.7746C78.1271 86.6713 78.2858 86.5237 78.3928 86.3281C78.4999 86.1325 78.5552 85.9074 78.5552 85.6454V82.5972C78.5552 82.3351 78.4999 82.1064 78.3928 81.9145C78.2858 81.7226 78.1271 81.5749 77.924 81.4679C77.721 81.3609 77.4811 81.3129 77.2043 81.3129C76.9274 81.3129 76.6912 81.3646 76.4845 81.4679C76.2778 81.5713 76.1228 81.7189 76.012 81.9145C75.9013 82.11 75.8459 82.3351 75.8459 82.5972V85.6454C75.8459 85.9074 75.9013 86.1362 76.012 86.3281C76.1228 86.52 76.2815 86.6676 76.4845 86.7746C76.6875 86.8817 76.9274 86.9296 77.2043 86.9296C77.4811 86.9296 77.7173 86.878 77.924 86.7746Z" fill="#212B50"/>
<path d="M92.6776 80.3977H93.8809L95.4349 86.1694L96.9889 80.3977H98.1922L95.996 87.8375H94.8739L92.6776 80.3977Z" fill="#212B50"/>
<path d="M103.858 80.3977H104.988V87.8375H103.858V80.3977ZM104.427 80.3977H108.324V81.3535H104.427V80.3977ZM104.427 83.6674H107.863V84.6195H104.427V83.6674ZM104.427 86.8817H108.324V87.8375H104.427V86.8817Z" fill="#212B50"/>
<path d="M115.4 87.8375H114.271V80.3977H115.4V87.8375Z" fill="#212B50"/>
<path d="M122.738 87.6308C122.377 87.4426 122.096 87.1695 121.901 86.8189C121.705 86.4684 121.605 86.0513 121.605 85.5753V82.6636C121.605 82.1876 121.705 81.7706 121.901 81.4163C122.096 81.062 122.377 80.7926 122.738 80.6044C123.1 80.4162 123.528 80.3203 124.023 80.3203C124.518 80.3203 124.913 80.4051 125.259 80.5749C125.606 80.7446 125.876 80.9956 126.075 81.3277C126.275 81.6598 126.389 82.0621 126.426 82.5345H125.282C125.256 82.2724 125.186 82.0473 125.075 81.8628C124.964 81.6783 124.82 81.5381 124.639 81.4421C124.458 81.3462 124.255 81.2982 124.027 81.2982C123.768 81.2982 123.543 81.3535 123.355 81.4643C123.167 81.575 123.019 81.7337 122.912 81.9366C122.805 82.1396 122.753 82.3831 122.753 82.6562V85.5679C122.753 85.8447 122.805 86.0846 122.912 86.2875C123.019 86.4905 123.163 86.6492 123.355 86.7599C123.547 86.8706 123.768 86.9223 124.027 86.9223C124.259 86.9223 124.466 86.8743 124.643 86.782C124.82 86.6898 124.964 86.5495 125.075 86.365C125.186 86.1805 125.256 85.9554 125.282 85.6897H126.426C126.393 86.1621 126.275 86.568 126.075 86.8964C125.876 87.2249 125.603 87.4795 125.256 87.6493C124.909 87.819 124.499 87.9039 124.027 87.9039C123.554 87.9039 123.108 87.8079 122.742 87.6197L122.738 87.6308Z" fill="#212B50"/>
<path d="M133.251 87.6529C132.893 87.4758 132.62 87.2212 132.431 86.8817C132.243 86.5422 132.151 86.1362 132.151 85.6602V80.4014H133.28V85.6971C133.28 86.0919 133.391 86.3982 133.613 86.6086C133.834 86.8189 134.148 86.9296 134.557 86.9296C134.967 86.9296 135.288 86.8226 135.51 86.6086C135.731 86.3945 135.846 86.0919 135.846 85.6971V80.4014H136.975V85.6602C136.975 86.1362 136.879 86.5458 136.691 86.8817C136.503 87.2175 136.226 87.4758 135.864 87.6529C135.502 87.8301 135.067 87.915 134.554 87.915C134.041 87.915 133.605 87.8264 133.247 87.6529H133.251Z" fill="#212B50"/>
<path d="M143.073 80.3977H144.202V87.8375H143.073V80.3977ZM143.656 86.8817H147.477V87.8375H143.656V86.8817Z" fill="#212B50"/>
<path d="M155.302 80.3977H156.298L158.797 87.8375H157.583L155.8 81.8812L154.017 87.8375H152.803L155.302 80.3977ZM154.128 85.2579H157.553V86.21H154.128V85.2579Z" fill="#212B50"/>
<path d="M164.493 80.394H165.622V87.8375H164.493V80.394ZM165.002 83.7338H167.191C167.398 83.7338 167.579 83.6932 167.734 83.612C167.889 83.5308 168.01 83.4164 168.092 83.2688C168.173 83.1212 168.213 82.9441 168.213 82.7448V82.361C168.213 82.158 168.173 81.9772 168.092 81.8222C168.01 81.6672 167.892 81.5528 167.737 81.4679C167.582 81.383 167.401 81.3461 167.191 81.3461H165.002V80.3904H167.117C167.579 80.3904 167.981 80.4678 168.324 80.6191C168.667 80.7705 168.93 80.9956 169.11 81.2834C169.291 81.5713 169.387 81.9145 169.387 82.3056V82.7411C169.387 83.136 169.295 83.4828 169.11 83.7744C168.926 84.0659 168.664 84.291 168.324 84.4497C167.985 84.6084 167.582 84.6859 167.121 84.6859H165.006V83.7301L165.002 83.7338ZM166.851 84.4608L167.944 84.2246L169.675 87.8375H168.387L166.851 84.4608Z" fill="#212B50"/>
</g>
<defs>
<clipPath id="clip0_1_5">
<rect width="170" height="90" fill="white"/>
</clipPath>
</defs>
</svg>
